HIERARCHY
ROOT Hips
{
  OFFSET 36.661 101.433 -155.709
  CHANNELS 6 Xposition Yposition Zposition Zrotation Xrotation Yrotation
  JOINT RightUpLeg
  {
    OFFSET -8.9458 -8.66707 0.101652
    CHANNELS 3 Zrotation Xrotation Yrotation
    JOINT RightLeg
    {
      OFFSET 0 -44.4227 1.3727
      CHANNELS 3 Zrotation Xrotation Yrotation
      JOINT RightFoot
      {
        OFFSET 0.253549 -42.0924 -1.46059
        CHANNELS 3 Zrotation Xrotation Yrotation
        JOINT RightToes
        {
          OFFSET 0.04 -4.41509 8.4991
          CHANNELS 3 Zrotation Xrotation Yrotation
          End Site
          {
            OFFSET -0.08 -0.137448 9.77979
          }
        }
      }
    }
  }
  JOINT Spine
  {
    OFFSET 0 11.8905 0
    CHANNELS 3 Zrotation Xrotation Yrotation
    JOINT Spine1
    {
      OFFSET 0 25.6574 0.127663
      CHANNELS 3 Zrotation Xrotation Yrotation
      JOINT HEad
      {
        OFFSET 0 8.73416 0.011341
        CHANNELS 3 Zrotation Xrotation Yrotation
        End Site
        {
          OFFSET -0.29 12.7742 2.51395
        }
      }
      JOINT LeftShoulder1
      {
        OFFSET 8.99 -0.362252 -0.22
        CHANNELS 3 Zrotation Xrotation Yrotation
        JOINT LeftArm
        {
          OFFSET 10.2827 -0.00338 0.322123
          CHANNELS 3 Zrotation Xrotation Yrotation
          JOINT LeftForeArm
          {
            OFFSET 32.7669 0.099144 -1.42434
            CHANNELS 3 Zrotation Xrotation Yrotation
            JOINT LeftHand
            {
              OFFSET 27.5643 0.085362 1.02216
              CHANNELS 3 Zrotation Xrotation Yrotation
              End Site
              {
                OFFSET 16.7443 -0.6 1.50291
              }
            }
          }
        }
      }
      JOINT RightShoulder
      {
        OFFSET -8.99 -0.362252 -0.22
        CHANNELS 3 Zrotation Xrotation Yrotation
        JOINT RightArm
        {
          OFFSET -10.2827 -0.00338 0.322123
          CHANNELS 3 Zrotation Xrotation Yrotation
          JOINT RightForeArm
          {
            OFFSET -32.8971 0.099144 -1.42434
            CHANNELS 3 Zrotation Xrotation Yrotation
            JOINT RightHand
            {
              OFFSET -27.4921 0.085362 1.02216
              CHANNELS 3 Zrotation Xrotation Yrotation
              End Site
              {
                OFFSET -16.6312 -0.6 1.50291
              }
            }
          }
        }
      }
    }
  }
  JOINT LeftUpLeg
  {
    OFFSET 8.9458 -8.66707 0.101652
    CHANNELS 3 Zrotation Xrotation Yrotation
    JOINT LeftLeg
    {
      OFFSET 0 -44.4227 1.3727
      CHANNELS 3 Zrotation Xrotation Yrotation
      JOINT LeftFoot
      {
        OFFSET -0.253549 -42.0924 -1.46059
        CHANNELS 3 Zrotation Xrotation Yrotation
        JOINT LeftToes
        {
          OFFSET -0.04 -4.41509 8.4991
          CHANNELS 3 Zrotation Xrotation Yrotation
          End Site
          {
            OFFSET 0.08 -0.047448 9.77979
          }
        }
      }
    }
  }
}
MOTION
Frames:	18
Frame Time:	0.0166667
30.425 100.759 -10.7122 -2.14659 -4.37243 -3.25413 5.39349 -17.675 -3.15432 -4.36432 11.0477 -11.9356 4.01184 4.53752 -0.436953 -10.9331 1.07712 -1.37438 -2.50591 3.40106 0.292369 1.03098 4.01547 -0.162432 8.4078 3.94395 13.447 -5.51738e-033 7.95139e-016 3.97569e-016 -91.3157 -20.7916 -21.9145 -27.4387 15.6182 -17.1631 0.368473 9.90896 -0.00117926 -5.16247 0.540264 10.1949 87.9977 -33.1263 1.37206 23.1618 12.222 1.98239 -0.369625 9.91382 0.00119886 -4.91201 8.23422 5.47848 2.87458 31.4095 18.5161 6.1077 2.45338 -0.213008 -15.9065 -12.9742 3.28474 
30.0181 100.932 -8.79819 -2.92343 -4.4953 -3.29448 6.29838 -16.7186 -1.17217 -4.00494 11.8658 -13.4437 4.76367 4.80084 -0.501474 -10.4728 0.870789 -1.30313 -2.2767 3.44338 0.454047 1.96969 4.07787 -0.219897 8.22267 3.9806 13.3927 3.47873e-016 -7.95139e-016 3.97569e-016 -91.1269 -20.9751 -20.3286 -27.66 15.903 -18.2943 0.368473 9.90896 -0.00117926 -4.9914 0.546942 9.867 87.7928 -33.4376 1.76691 22.8855 12.087 1.33334 -0.369625 9.91382 0.00119886 -3.63253 8.00121 5.93384 2.8378 33.6564 19.8895 5.58641 4.66062 -0.296948 -13.9896 -11.2736 3.20025 
29.6005 101.101 -6.92268 -3.71577 -4.597 -3.35886 7.20969 -15.7455 0.409911 -3.65838 12.6562 -14.5947 5.61576 4.60285 -0.55539 -10.5454 0.810383 -1.32543 -2.05756 3.51101 0.604877 2.88788 4.20362 -0.277063 8.1263 3.88714 13.3764 5.2181e-016 -3.97569e-016 -3.97569e-016 -91.0532 -21.2828 -18.7605 -27.7151 16.1332 -19.2314 0.368473 9.90896 -0.00117926 -4.97651 0.530269 9.41374 87.9443 -33.5446 2.41418 22.5718 11.9822 0.832643 -0.369625 9.91382 0.00119886 -2.13987 7.23259 6.74978 2.86845 36.4664 21.6576 4.91683 7.36304 -0.368773 -9.87326 -8.68596 2.3093 
29.1448 101.274 -5.13365 -4.45589 -4.72036 -3.41872 8.07918 -14.5927 0.86357 -3.4201 12.9827 -14.8387 6.03977 4.40326 -0.575933 -9.93733 1.63698 -1.14698 -1.71253 3.58891 0.69815 3.53563 4.5194 -0.32101 8.19383 3.67602 13.3799 -3.47873e-016 -3.97569e-016 1.19271e-015 -91.0814 -21.8822 -17.4147 -27.5725 16.2399 -19.7007 0.368473 9.90896 -0.00117926 -5.12692 0.492402 8.87412 88.6164 -33.4142 3.31965 22.1849 11.9344 0.630352 -0.369625 9.91382 0.00119886 -0.31229 5.90126 8.38275 3.47545 39.8111 23.6022 4.17055 11.0102 -0.427352 0.186436 -4.53528 -0.782054 
28.6661 101.421 -3.42006 -5.12969 -4.78031 -3.40674 8.9359 -13.4944 0.872364 -3.24594 13.1792 -14.7353 6.17145 4.02134 -0.56906 -9.26508 2.57742 -0.948896 -1.26305 3.67245 0.730315 3.95042 4.86685 -0.3512 8.37292 3.37885 13.3704 -4.72114e-016 -7.95139e-016 3.97569e-016 -91.0482 -22.5577 -16.2411 -27.3814 16.2574 -19.8082 0.368473 9.90896 -0.00117926 -5.30178 0.45375 8.38369 89.4598 -33.0937 4.2485 21.876 11.9534 0.753201 -0.369625 9.91382 0.00119886 1.64312 4.05723 10.2902 4.26882 43.4748 24.8529 3.47358 14.8407 -0.473716 11.1567 0.0236527 -4.31059 
28.1564 101.501 -1.79552 -5.72263 -4.69456 -3.22239 9.78246 -12.6368 0.942314 -3.06841 13.4281 -14.7171 5.87543 3.41956 -0.52609 -8.68973 3.00053 -0.81819 -0.611483 3.75661 0.663063 4.04629 5.12195 -0.360593 8.64647 3.05052 13.3267 1.2424e-016 -1.59028e-015 -0 -90.7517 -23.1095 -15.249 -27.2908 16.1928 -19.5802 0.368473 9.90896 -0.00117926 -5.34209 0.439062 8.1149 90.213 -32.6682 4.90832 21.775 12.0679 1.35739 -0.369625 9.91382 0.00119886 3.58878 1.69701 12.1987 5.79525 47.4563 23.6023 2.94761 18.6404 -0.501277 17.7731 4.26261 -6.97981 
27.6586 101.562 -0.234047 -6.17024 -4.49729 -2.93694 10.5131 -11.9662 0.837376 -2.96182 13.7132 -14.6401 5.44001 2.62801 -0.468502 -8.32525 3.22073 -0.741896 0.0217947 3.8274 0.553902 3.94156 5.30835 -0.355561 8.98056 2.63289 13.1962 1.49089e-016 0 -3.97569e-016 -90.3778 -23.6347 -14.488 -27.2432 16.0397 -18.989 0.368473 9.90896 -0.00117926 -5.30718 0.438306 7.99602 90.8022 -32.0176 5.49325 21.8956 12.241 2.20746 -0.369625 9.91382 0.00119886 5.32036 -1.02088 13.8115 7.71179 51.4378 20.9674 2.66434 21.2162 -0.523722 22.2505 7.45049 -9.05427 
27.2139 101.645 1.28838 -6.3764 -4.1717 -2.56521 11.0039 -11.5186 0.455867 -3.0126 14.0871 -14.5256 5.12619 1.6108 -0.415223 -8.49413 3.31015 -0.763391 0.399197 3.86369 0.448676 3.71733 5.37317 -0.339208 9.33821 2.09724 12.8572 -3.23025e-016 7.95139e-016 -0 -90.0265 -24.1424 -14.031 -27.2484 15.7721 -17.9602 0.368473 9.90896 -0.00117926 -5.18612 0.449436 7.97387 90.9816 -30.9516 6.08182 22.3821 12.4497 3.12013 -0.369625 9.91382 0.00119886 6.32357 -4.02883 14.786 9.42051 55.0352 17.2048 2.89457 20.5867 -0.564952 24.9776 8.21549 -10.2627 
26.8203 101.725 2.7641 -6.42655 -3.7882 -2.17651 11.3075 -11.2081 -0.101119 -3.11898 14.5261 -14.3104 4.87799 0.528419 -0.364984 -8.74004 3.36461 -0.800938 0.668342 3.88183 0.344171 3.40009 5.42197 -0.314372 9.69787 1.40682 12.4982 -6.21202e-016 7.95139e-016 7.95139e-016 -89.7511 -24.6977 -13.8189 -27.2269 15.4359 -16.6664 0.368473 9.90896 -0.00117926 -5.03217 0.472947 8.1653 90.9735 -29.7575 6.71627 22.9761 12.6839 4.09446 -0.369625 9.91382 0.00119886 6.94577 -7.16329 14.9924 10.8803 58.0993 13.7996 3.16409 18.9015 -0.581142 25.674 7.9516 -10.6094 
26.4975 101.797 4.17897 -6.36868 -3.38961 -1.82848 11.4169 -10.9859 -0.770548 -3.19649 14.9981 -13.9466 4.74387 -0.419518 -0.325419 -8.61749 3.54207 -0.768124 0.888301 3.88568 0.259271 3.06079 5.54048 -0.287161 10.0454 0.437314 12.2633 3.72721e-016 0 3.97569e-016 -89.6404 -25.307 -13.8493 -27.1287 15.0764 -15.2678 0.368473 9.90896 -0.00117926 -4.82528 0.520069 8.72941 90.8074 -28.6822 7.43545 23.4957 12.9377 5.09415 -0.369625 9.91382 0.00119886 7.27742 -10.314 13.8408 10.3959 60.553 13.9312 2.93544 17.9282 -0.515848 24.1024 7.74046 -9.88314 
26.2216 101.849 5.5765 -6.20508 -3.04306 -1.56957 11.3732 -10.7773 -1.54257 -3.29047 15.5813 -13.4073 4.66764 -1.38622 -0.288286 -8.41972 3.7282 -0.722246 1.08731 3.89153 0.173526 2.64682 5.73524 -0.250861 10.3454 -0.571333 12.1665 2.48481e-017 0 -1.98785e-016 -89.6827 -26.1488 -14.0262 -26.8962 14.6857 -13.7218 0.368473 9.90896 -0.00117926 -4.7767 0.556059 9.48627 90.8387 -27.648 8.33469 23.8649 13.1793 6.04031 -0.369625 9.91382 0.00119886 7.2284 -13.3417 12.2298 8.8695 62.3726 15.8306 2.69668 16.8312 -0.441263 21.2849 7.02554 -8.60549 
25.9763 101.864 6.99835 -5.93508 -2.82855 -1.46941 11.1972 -10.5351 -2.4847 -3.44253 16.4339 -12.5507 4.63382 -2.54783 -0.244213 -8.43931 3.82792 -0.717655 1.33028 3.93287 0.0646141 2.10324 6.01968 -0.199899 10.5577 -1.39243 12.2894 9.93923e-017 -1.59028e-015 -5.96354e-016 -89.9 -27.4604 -14.2795 -26.433 14.2482 -11.9253 0.368473 9.90896 -0.00117926 -5.11799 0.550734 10.3345 91.4926 -26.6932 9.54284 23.913 13.3746 6.82773 -0.369625 9.91382 0.00119886 6.97151 -16.0089 10.9499 7.66861 63.4518 18.0242 2.85167 15.2829 -0.426634 18.0554 5.30333 -7.17128 
25.7585 101.866 8.43589 -5.60454 -2.75073 -1.52128 10.959 -10.1289 -3.29873 -3.60958 17.285 -11.668 4.57159 -3.63597 -0.204366 -8.23082 3.94143 -0.676848 1.56688 3.96195 -0.043011 1.50682 6.45886 -0.136859 10.7105 -2.10462 12.5611 4.96962e-017 0 -0 -90.28 -29.0726 -14.5464 -25.8097 13.8355 -10.2184 0.368473 9.90896 -0.00117926 -5.76003 0.503038 11.1975 92.5588 -25.7047 10.9833 23.7601 13.5312 7.4952 -0.369625 9.91382 0.00119886 6.59464 -18.3253 9.79462 6.29554 63.8029 20.5864 3.09972 13.5274 -0.420124 14.8824 3.48425 -5.77805 
25.5586 101.881 9.89704 -5.25135 -2.88542 -1.77461 10.7278 -9.33331 -3.59811 -3.70721 17.8508 -11.0925 4.39158 -4.36822 -0.179096 -7.336 4.14667 -0.520149 1.7604 3.93274 -0.131427 0.896338 7.21048 -0.0576622 10.8424 -2.7434 12.9726 2.48481e-016 1.59028e-015 -3.97569e-016 -90.8854 -30.9874 -14.7875 -25.0126 13.5406 -8.91844 0.368473 9.90896 -0.00117926 -6.76797 0.390553 11.9461 94.0684 -24.5357 12.6786 23.4447 13.6443 8.05782 -0.369625 9.91382 0.00119886 6.25603 -20.1767 8.86364 4.81155 63.4471 22.9695 3.31267 11.5849 -0.391017 12.4396 2.56152 -4.7735 
25.3787 101.885 11.3738 -4.91098 -3.09844 -2.13147 10.5135 -8.39563 -3.7197 -3.79113 18.3227 -10.5773 4.12906 -4.9629 -0.161503 -6.08999 4.41521 -0.308169 1.93365 3.8736 -0.203281 0.328511 8.01013 0.0235867 10.8617 -3.2154 13.4217 8.44835e-016 -3.18055e-015 3.97569e-016 -91.4615 -32.9401 -14.8391 -24.2794 13.3344 -7.97049 0.368473 9.90896 -0.00117926 -7.90841 0.248111 12.6371 95.6865 -23.3337 14.4524 23.0387 13.7159 8.48177 -0.369625 9.91382 0.00119886 5.96897 -21.7084 8.07119 3.45594 62.3773 25.1107 3.38911 9.79928 -0.347996 10.5051 1.84934 -4.01872 
25.2175 101.866 12.8596 -4.63594 -3.28536 -2.52817 10.3694 -7.47408 -3.85313 -3.90452 18.7884 -9.94814 3.7501 -5.52643 -0.149236 -4.47919 4.8387 -0.0442117 2.08936 3.79259 -0.25198 -0.104972 8.63949 0.0929965 10.6072 -3.40818 13.7761 -0 0 7.95139e-016 -91.7057 -34.6689 -14.4197 -23.8769 13.2324 -7.51124 0.368473 9.90896 -0.00117926 -9.00407 0.0955254 13.2942 97.1558 -22.2087 16.1534 22.6075 13.7372 8.70759 -0.369625 9.91382 0.00119886 5.79784 -23.0292 7.33942 2.27307 60.5816 27.0422 3.06943 8.63569 -0.279443 9.19887 0.851538 -3.53037 
25.0755 101.817 14.3584 -4.40595 -3.43305 -2.91098 10.2536 -6.60591 -4.0483 -4.04793 19.2754 -9.31011 3.37528 -6.11208 -0.139049 -3.09117 5.13487 0.179518 2.2516 3.70459 -0.287372 -0.462604 9.11803 0.153135 10.2946 -3.42214 14.1135 9.93923e-017 0 -3.97569e-016 -91.687 -36.1772 -13.7258 -23.6832 13.182 -7.28829 0.368473 9.90896 -0.00117926 -9.95848 -0.0459374 13.8859 98.3876 -21.1428 17.7728 22.2062 13.7357 8.82805 -0.369625 9.91382 0.00119886 5.65847 -24.1477 6.74484 1.60976 58.1337 28.2806 2.69554 7.75107 -0.213254 8.30849 -0.0284951 -3.21575 
24.9525 101.72 15.8741 -4.22036 -3.46052 -3.18658 10.1514 -5.93576 -4.48871 -4.26231 19.8697 -8.68554 3.1643 -6.86668 -0.124267 -2.78917 4.97478 0.221856 2.46146 3.63133 -0.319779 -0.769503 9.32977 0.199013 10.131 -3.23385 14.5017 -9.93923e-017 -3.18055e-015 -0 -91.394 -37.3614 -12.9001 -23.6568 13.1168 -7.03859 0.368473 9.90896 -0.00117926 -10.5712 -0.143209 14.3952 99.1417 -20.1603 19.2308 21.9319 13.7317 8.89117 -0.369625 9.91382 0.00119886 5.47842 -25.1519 6.36017 1.6389 55.1107 28.4728 2.59023 6.8966 -0.179925 7.72759 -0.482886 -3.00955 
